<?xml version="1.0" standalone="no"?>
<!DOCTYPE svg PUBLIC "-//W3C//DTD SVG 20010904//EN"
 "http://www.w3.org/TR/2001/REC-SVG-20010904/DTD/svg10.dtd">
<svg version="1.0" xmlns="http://www.w3.org/2000/svg"
 width="512.000000pt" height="512.000000pt" viewBox="0 0 512.000000 512.000000"
 preserveAspectRatio="xMidYMid meet">

<g transform="translate(0.000000,512.000000) scale(0.100000,-0.100000)"
fill="#000000" stroke="none">
<path d="M288 4150 c-46 -25 -83 -72 -97 -125 -16 -59 -15 -2829 1 -2893 15
-62 78 -125 140 -140 59 -15 717 -16 769 -2 56 16 101 51 129 100 l25 45 3
418 c3 385 4 417 20 417 13 0 76 -118 237 -442 248 -498 261 -517 358 -538 38
-7 176 -10 435 -8 l379 3 48 30 c72 45 98 98 93 195 l-4 75 -253 488 -253 487
28 22 c64 49 179 167 216 222 126 184 188 432 174 692 -24 441 -279 762 -716
902 -207 66 -203 66 -985 69 -691 3 -711 2 -747 -17z m1471 -196 c395 -58 670
-273 751 -587 37 -148 35 -353 -5 -512 -8 -33 -36 -102 -61 -154 -60 -121
-166 -230 -301 -310 l-92 -54 38 -71 c150 -277 541 -1048 541 -1065 l0 -21
-357 2 -358 3 -248 493 -247 492 -180 0 -180 0 -2 -492 -3 -493 -335 0 -335 0
-3 1393 -2 1392 636 0 c525 0 655 -3 743 -16z"/>
<path d="M1060 3075 l0 -386 273 3 c255 3 276 5 329 26 109 44 179 141 200
277 24 155 -27 311 -126 386 -87 66 -119 72 -413 77 l-263 4 0 -387z m532 161
c52 -25 73 -73 73 -166 0 -84 -14 -122 -58 -154 -26 -19 -45 -21 -188 -24
l-159 -3 0 186 0 187 148 -4 c115 -3 155 -8 184 -22z"/>
<path d="M3688 3490 c-338 -31 -622 -180 -780 -413 -89 -131 -128 -262 -128
-432 0 -210 63 -368 206 -512 l81 -83 -86 0 c-142 0 -204 -29 -248 -118 -24
-48 -25 -60 -20 -132 32 -418 385 -755 875 -836 117 -19 364 -22 477 -5 323
49 585 191 729 395 95 134 126 227 133 397 7 158 -10 246 -74 379 -40 82 -59
108 -143 192 l-98 98 81 0 c97 0 147 19 194 73 47 54 58 103 44 214 -22 185
-84 321 -201 446 -191 204 -430 309 -768 337 -129 11 -148 11 -274 0z m393
-216 c193 -32 355 -110 474 -229 114 -113 160 -209 179 -372 l7 -53 -326 0
c-277 0 -325 2 -325 15 0 7 -5 37 -11 65 -20 95 -98 156 -213 167 -80 7 -152
-10 -204 -48 -49 -36 -72 -82 -72 -146 0 -117 85 -172 354 -228 344 -72 497
-137 627 -265 107 -105 158 -233 159 -395 0 -154 -49 -266 -169 -385 -73 -73
-102 -94 -191 -138 -178 -88 -339 -118 -595 -109 -120 4 -181 10 -243 27 -268
71 -461 214 -562 419 -31 62 -59 169 -60 224 l0 27 300 0 300 0 5 -27 c28
-131 68 -184 171 -223 69 -26 211 -32 282 -12 114 34 176 161 122 250 -37 61
-108 91 -380 162 -102 27 -210 57 -240 68 -256 92 -420 238 -474 421 -20 70
-21 228 -1 304 49 188 217 359 427 435 46 16 110 35 143 42 141 30 349 31 516
4z"/>
</g>
</svg>
